<svg id="bb7b2359-5103-4abb-96eb-5a132fd38f14" data-name="Layer 3" xmlns="http://www.w3.org/2000/svg" width="500" height="500" viewBox="0 0 500 500"><defs><style>.b24db991-6baf-4de0-89ca-3324a5455198{fill:#00a8b4;}.be3c1c86-b435-4f72-902b-c1807755db6c{fill:none;stroke:#000;stroke-miterlimit:10;stroke-width:15px;}</style></defs><title>icon_build</title><path class="b24db991-6baf-4de0-89ca-3324a5455198" d="M473.77,291.22a205.88,205.88,0,0,0,0-60.44L410,220.06a143.29,143.29,0,0,0-11.46-27.72L436,139.71A205.18,205.18,0,0,0,393.29,97l-52.63,37.48A143.29,143.29,0,0,0,312.94,123L302.22,59.23a205.88,205.88,0,0,0-60.44,0L231.06,123a143.29,143.29,0,0,0-27.72,11.46L150.71,97A205.18,205.18,0,0,0,108,139.71l37.48,52.63A143.29,143.29,0,0,0,134,220.06L70.23,230.78a205.88,205.88,0,0,0,0,60.44L134,301.94a143.29,143.29,0,0,0,11.46,27.72L108,382.29A205.18,205.18,0,0,0,150.71,425l52.63-37.48A143.29,143.29,0,0,0,231.06,399l10.72,63.76a205.88,205.88,0,0,0,60.44,0L312.94,399a143.29,143.29,0,0,0,27.72-11.46L393.29,425A205.18,205.18,0,0,0,436,382.29l-37.48-52.63A143.29,143.29,0,0,0,410,301.94Z"/><path class="be3c1c86-b435-4f72-902b-c1807755db6c" d="M451.77,280.22a205.88,205.88,0,0,0,0-60.44L388,209.06a143.29,143.29,0,0,0-11.46-27.72L414,128.71A205.18,205.18,0,0,0,371.29,86l-52.63,37.48A143.29,143.29,0,0,0,290.94,112L280.22,48.23a205.88,205.88,0,0,0-60.44,0L209.06,112a143.29,143.29,0,0,0-27.72,11.46L128.71,86A205.18,205.18,0,0,0,86,128.71l37.48,52.63A143.29,143.29,0,0,0,112,209.06L48.23,219.78a205.88,205.88,0,0,0,0,60.44L112,290.94a143.29,143.29,0,0,0,11.46,27.72L86,371.29A205.18,205.18,0,0,0,128.71,414l52.63-37.48A143.29,143.29,0,0,0,209.06,388l10.72,63.76a205.88,205.88,0,0,0,60.44,0L290.94,388a143.29,143.29,0,0,0,27.72-11.46L371.29,414A205.18,205.18,0,0,0,414,371.29l-37.48-52.63A143.29,143.29,0,0,0,388,290.94Z"/><circle class="be3c1c86-b435-4f72-902b-c1807755db6c" cx="250" cy="250" r="41.5"/><path class="be3c1c86-b435-4f72-902b-c1807755db6c" d="M250,349a99,99,0,0,1-99-99"/><path class="be3c1c86-b435-4f72-902b-c1807755db6c" d="M250,151a99,99,0,0,1,99,99"/></svg>